<?xml version="1.0" standalone="no"?>
<!DOCTYPE svg PUBLIC "-//W3C//DTD SVG 20010904//EN"
 "http://www.w3.org/TR/2001/REC-SVG-20010904/DTD/svg10.dtd">
<svg version="1.0" xmlns="http://www.w3.org/2000/svg"
 width="512.000000pt" height="512.000000pt" viewBox="0 0 512.000000 512.000000"
 preserveAspectRatio="xMidYMid meet">

<g transform="translate(0.000000,512.000000) scale(0.100000,-0.100000)"
fill="#000000" stroke="none">
<path d="M833 5105 c-145 -39 -256 -146 -300 -288 -12 -40 -21 -56 -31 -52
-81 31 -183 5 -252 -64 -73 -73 -80 -107 -80 -378 l0 -223 770 0 770 0 0 210
c0 115 -5 232 -11 260 -30 142 -177 235 -311 197 -25 -7 -28 -5 -39 35 -60
225 -295 362 -516 303z m172 -166 c60 -17 121 -64 152 -117 26 -43 28 -58 33
-172 l5 -125 82 -3 82 -3 16 35 c34 70 129 67 154 -5 6 -18 11 -88 11 -155 l0
-124 -601 0 -600 0 3 145 c3 134 5 146 25 167 31 30 84 30 118 -2 14 -13 25
-32 25 -42 0 -16 9 -18 84 -18 l83 0 5 118 c4 99 9 127 29 167 55 109 178 166
294 134z"/>
<path d="M2470 4865 l0 -255 -210 0 -210 0 0 -515 0 -515 -85 0 -85 0 0 -935
0 -935 -84 0 -85 0 -3 -40 -3 -40 -169 135 c-108 86 -173 132 -180 127 -6 -5
-83 -66 -171 -137 l-160 -127 -3 381 -2 381 -510 0 -510 0 0 -1195 0 -1195
2560 0 2560 0 0 1365 0 1365 -271 0 -271 0 -239 -191 -239 -191 0 -404 0 -404
-257 -2 -258 -3 -3 -258 -2 -258 -83 3 -82 3 -3 343 -2 342 -85 0 -85 0 0 935
0 934 -82 3 -83 3 -3 513 -2 512 -210 0 -210 0 0 255 0 255 -90 0 -90 0 0
-255z m430 -855 l0 -430 -340 0 -340 0 0 430 0 430 340 0 340 0 0 -430z m170
-1450 l0 -850 -510 0 -510 0 0 850 0 850 510 0 510 0 0 -850z m1880 -1195 l0
-1195 -340 0 -340 0 0 1048 0 1048 183 147 182 146 158 1 157 0 0 -1195z
m-4100 -170 l0 -1025 -340 0 -340 0 0 1025 0 1025 340 0 340 0 0 -1025z m690
349 l170 -136 0 -619 0 -619 -345 0 -345 0 0 618 0 618 171 137 c95 75 173
137 176 137 2 0 80 -61 173 -136z m1700 -689 l0 -685 -85 0 -85 0 0 255 0 255
-510 0 -510 0 0 -255 0 -255 -85 0 -85 0 0 685 0 685 680 0 680 0 0 -685z
m855 340 l0 -170 -170 0 -170 0 -3 160 c-1 87 0 165 3 172 3 11 41 13 172 11
l168 -3 0 -170z m5 -685 l0 -340 -345 0 -345 0 0 340 0 340 345 0 345 0 0
-340z m-1200 -170 l0 -170 -340 0 -340 0 0 170 0 170 340 0 340 0 0 -170z"/>
<path d="M2390 4185 l0 -85 170 0 170 0 0 85 0 85 -170 0 -170 0 0 -85z"/>
<path d="M2390 3840 l0 -90 170 0 170 0 0 90 0 90 -170 0 -170 0 0 -90z"/>
<path d="M2220 2985 l0 -85 340 0 340 0 0 85 0 85 -340 0 -340 0 0 -85z"/>
<path d="M2220 2645 l0 -85 340 0 340 0 0 85 0 85 -340 0 -340 0 0 -85z"/>
<path d="M2220 2305 l0 -85 340 0 340 0 0 85 0 85 -340 0 -340 0 0 -85z"/>
<path d="M2220 1965 l0 -85 340 0 340 0 0 85 0 85 -340 0 -340 0 0 -85z"/>
<path d="M2050 1280 l0 -90 510 0 510 0 0 90 0 90 -510 0 -510 0 0 -90z"/>
<path d="M2050 935 l0 -85 510 0 510 0 0 85 0 85 -510 0 -510 0 0 -85z"/>
<path d="M4065 4677 c-140 -47 -240 -142 -284 -273 l-19 -58 -84 -1 c-96 0
-144 -20 -196 -80 -62 -70 -65 -86 -70 -352 l-4 -243 771 0 771 0 0 223 c0
257 -9 303 -67 368 -59 65 -104 84 -201 84 l-82 0 -11 40 c-29 110 -139 232
-246 275 -71 28 -217 37 -278 17z m220 -181 c109 -52 146 -120 153 -283 l5
-113 83 0 c64 0 84 3 84 14 0 7 12 25 26 40 34 33 74 34 111 2 28 -24 28 -24
31 -170 l3 -146 -601 0 -602 0 4 146 c3 146 3 146 31 170 37 31 81 31 112 -1
14 -13 25 -31 25 -40 0 -12 15 -15 90 -15 l90 0 0 113 c0 91 4 120 21 157 59
130 207 186 334 126z"/>
</g>
</svg>
