<?xml version="1.0" standalone="no"?>
<!DOCTYPE svg PUBLIC "-//W3C//DTD SVG 20010904//EN"
 "http://www.w3.org/TR/2001/REC-SVG-20010904/DTD/svg10.dtd">
<svg version="1.0" xmlns="http://www.w3.org/2000/svg"
 width="512.000000pt" height="512.000000pt" viewBox="0 0 512.000000 512.000000"
 preserveAspectRatio="xMidYMid meet">

<g transform="translate(0.000000,512.000000) scale(0.100000,-0.100000)"
fill="#000000" stroke="none">
<path d="M2055 5103 c-290 -62 -519 -294 -579 -585 -12 -58 -16 -138 -16 -318
l0 -240 565 0 c547 0 567 -1 605 -20 45 -23 80 -80 80 -130 0 -50 -35 -107
-80 -130 -38 -20 -57 -20 -995 -20 -834 0 -966 -2 -1033 -16 -295 -61 -526
-291 -586 -586 -23 -114 -23 -883 0 -996 50 -241 221 -449 450 -545 110 -47
192 -57 453 -57 l240 0 3 408 3 407 26 67 c63 163 179 277 345 340 l59 23 940
5 940 5 48 23 c56 28 101 80 122 141 23 68 23 1525 -1 1639 -61 295 -291 525
-586 586 -109 23 -897 22 -1003 -1z m225 -463 c45 -23 80 -80 80 -130 0 -76
-74 -150 -151 -150 -73 0 -149 76 -149 150 0 48 35 107 78 129 48 26 93 26
142 1z"/>
<path d="M3958 3253 l-3 -408 -26 -67 c-64 -164 -178 -277 -345 -340 l-59 -23
-940 -5 -940 -5 -48 -23 c-56 -28 -101 -80 -122 -141 -23 -68 -23 -1525 1
-1639 61 -293 293 -525 586 -586 113 -23 883 -23 996 0 295 61 525 291 586
586 12 58 16 137 16 318 l0 240 -566 0 -566 0 -40 22 c-101 57 -101 199 0 256
l40 22 956 0 c1027 0 1029 0 1160 51 172 68 333 223 412 398 57 126 57 131 61
615 4 386 2 460 -12 529 -41 200 -158 373 -328 484 -157 103 -252 123 -576
123 l-240 0 -3 -407z m-978 -2513 c45 -23 80 -80 80 -130 0 -76 -74 -150 -150
-150 -50 0 -107 35 -130 80 -38 74 -16 153 56 196 48 29 92 30 144 4z"/>
</g>
</svg>
