<?xml version="1.0" standalone="no"?>
<!DOCTYPE svg PUBLIC "-//W3C//DTD SVG 20010904//EN"
 "http://www.w3.org/TR/2001/REC-SVG-20010904/DTD/svg10.dtd">
<svg version="1.0" xmlns="http://www.w3.org/2000/svg"
 width="512.000000pt" height="512.000000pt" viewBox="0 0 512.000000 512.000000"
 preserveAspectRatio="xMidYMid meet">

<g transform="translate(0.000000,512.000000) scale(0.100000,-0.100000)"
fill="#000000" stroke="none">
<path d="M190 5111 c-69 -21 -130 -73 -166 -141 -18 -34 -19 -93 -19 -1600 l0
-1565 22 -41 c31 -59 93 -110 154 -128 77 -23 1265 -24 1308 -1 49 25 59 96
19 131 -19 18 -55 19 -654 24 l-633 5 -23 23 -23 23 -3 1214 -2 1215 1835 0
1835 0 0 -484 0 -485 24 -27 c33 -39 89 -39 122 0 l24 27 0 807 0 807 -24 50
c-27 58 -65 99 -121 129 l-40 21 -1805 2 c-993 1 -1816 -2 -1830 -6z m3621
-190 l29 -29 0 -226 0 -226 -1835 0 -1835 0 0 226 0 226 29 29 29 29 1777 0
1777 0 29 -29z"/>
<path d="M390 4767 c-52 -27 -60 -89 -18 -134 48 -51 138 -12 138 60 0 58 -68
101 -120 74z"/>
<path d="M730 4767 c-14 -7 -31 -25 -38 -39 -38 -81 70 -157 133 -93 42 41 31
105 -22 133 -27 15 -42 15 -73 -1z"/>
<path d="M1068 4764 c-48 -25 -54 -94 -12 -131 67 -61 161 14 128 102 -7 17
-55 45 -76 45 -7 -1 -25 -7 -40 -16z"/>
<path d="M524 3991 c-23 -10 -52 -34 -65 -52 l-24 -34 0 -322 c0 -309 1 -323
21 -349 11 -15 33 -37 48 -48 26 -20 42 -21 339 -24 308 -2 313 -2 351 20 25
14 48 40 63 67 23 43 23 50 23 332 0 179 -4 298 -11 316 -5 15 -22 41 -37 57
-51 54 -66 56 -379 56 -259 0 -292 -2 -329 -19z m586 -406 l0 -255 -255 0
-255 0 0 255 0 255 255 0 255 0 0 -255z"/>
<path d="M1395 3985 c-41 -40 -33 -105 16 -130 42 -22 2086 -22 2128 0 49 25
57 90 16 130 l-24 25 -1056 0 -1056 0 -24 -25z"/>
<path d="M1415 3659 c-52 -29 -62 -93 -20 -134 l24 -25 840 0 840 0 27 24 c36
30 39 86 6 119 l-23 22 -837 2 c-595 2 -843 -1 -857 -8z"/>
<path d="M3260 3399 c-29 -12 -67 -46 -83 -74 -6 -11 -14 -58 -17 -104 -5 -79
-7 -85 -30 -92 -14 -4 -67 -19 -119 -33 -126 -36 -223 -77 -332 -143 l-91 -54
-47 44 c-61 57 -100 77 -150 77 -63 0 -91 -16 -180 -103 -90 -89 -111 -124
-111 -187 0 -51 20 -90 77 -151 l44 -47 -42 -69 c-80 -130 -146 -292 -179
-445 l-13 -56 -88 -4 c-94 -3 -121 -15 -163 -72 -19 -24 -21 -44 -24 -169 -2
-132 -1 -145 20 -181 34 -58 93 -86 183 -86 l71 0 18 -77 c33 -141 100 -301
181 -432 l38 -62 -51 -52 c-28 -29 -56 -65 -61 -80 -14 -36 -14 -98 -1 -133
16 -40 159 -184 205 -205 78 -36 128 -24 216 52 l59 52 67 -40 c164 -97 282
-144 476 -187 27 -6 27 -8 27 -84 0 -97 24 -144 89 -179 39 -20 58 -23 162
-23 128 0 159 7 203 48 41 39 56 82 56 161 l0 70 43 11 c179 43 314 96 438
171 44 27 83 49 86 49 3 0 28 -21 55 -46 78 -72 141 -90 215 -59 46 19 189
162 208 208 31 74 13 137 -59 215 -25 27 -46 52 -46 55 0 3 22 42 49 86 75
124 128 259 171 439 l11 42 69 0 c79 0 114 11 154 48 47 44 56 79 56 210 0
105 -3 124 -23 163 -34 65 -82 89 -178 89 l-77 0 -18 73 c-39 162 -82 264
-195 464 l-24 42 52 53 c110 112 99 191 -44 330 -86 83 -112 98 -173 98 -58 0
-89 -16 -147 -72 l-51 -51 -74 45 c-129 79 -286 143 -420 173 l-78 17 0 72 c0
91 -28 150 -86 183 -35 20 -52 23 -169 22 -71 0 -141 -5 -155 -10z m240 -229
c0 -39 6 -85 14 -103 17 -42 67 -84 114 -96 236 -63 344 -106 480 -192 113
-72 184 -67 274 19 l59 56 59 -59 59 -58 -54 -59 c-59 -63 -81 -117 -70 -171
4 -18 28 -68 55 -112 92 -154 139 -269 176 -433 27 -122 89 -171 217 -172 l67
0 0 -85 0 -85 -72 0 c-86 0 -147 -25 -177 -73 -11 -18 -31 -79 -45 -136 -33
-134 -83 -254 -152 -368 -30 -50 -60 -107 -65 -127 -16 -57 4 -110 67 -176
l53 -56 -62 -62 -62 -61 -56 54 c-64 62 -118 82 -175 66 -20 -5 -77 -35 -127
-65 -114 -69 -234 -119 -368 -152 -57 -14 -118 -34 -136 -45 -48 -30 -73 -91
-73 -177 l0 -72 -85 0 -85 0 0 68 c-1 127 -50 189 -172 216 -163 37 -300 93
-436 178 -119 76 -184 72 -280 -17 l-59 -54 -58 59 -59 59 56 59 c86 90 91
161 19 274 -86 136 -129 244 -192 480 -12 47 -54 97 -96 114 -18 8 -64 14
-103 14 l-70 0 0 85 0 85 68 0 c76 0 142 27 174 70 10 14 31 75 48 136 40 153
82 255 156 381 55 92 64 114 64 156 0 60 -9 79 -73 145 l-52 52 63 62 62 63
52 -52 c66 -64 85 -73 145 -73 42 0 64 9 156 64 126 74 228 116 381 156 61 17
122 38 136 48 43 32 70 98 70 174 l0 68 85 0 85 0 0 -70z"/>
<path d="M3307 2808 c-528 -48 -946 -469 -995 -1000 -43 -463 201 -893 623
-1099 188 -92 427 -129 633 -99 411 59 761 349 892 735 119 352 60 730 -161
1025 -230 308 -605 474 -992 438z m324 -188 c340 -88 598 -341 691 -678 18
-64 22 -104 22 -237 -1 -145 -3 -168 -28 -250 -97 -323 -328 -554 -651 -651
-82 -25 -105 -27 -250 -28 -133 0 -173 4 -237 22 -311 86 -552 312 -656 617
-63 185 -57 434 14 624 125 332 444 573 793 599 96 8 236 -1 302 -18z"/>
<path d="M3526 2427 c-38 -38 -36 -87 5 -121 17 -14 39 -26 49 -26 34 0 175
-79 232 -130 32 -28 76 -80 99 -115 24 -37 52 -68 68 -75 57 -23 114 17 114
81 0 67 -153 243 -277 318 -73 44 -171 83 -223 89 -35 4 -46 0 -67 -21z"/>
<path d="M3303 1935 c-99 -50 -148 -137 -141 -244 6 -74 23 -114 69 -160 100
-101 251 -104 355 -9 107 98 108 262 3 367 -47 47 -87 64 -164 68 -61 4 -77 1
-122 -22z m167 -170 c31 -33 32 -87 2 -117 -49 -50 -142 -11 -142 59 0 74 90
111 140 58z"/>
<path d="M2715 1608 c-49 -28 -56 -64 -26 -149 42 -124 119 -241 169 -260 59
-22 124 42 103 102 -5 16 -21 44 -34 61 -33 44 -72 124 -86 175 -18 68 -76
100 -126 71z"/>
<path d="M3025 1165 c-31 -30 -32 -73 -5 -108 40 -50 250 -117 369 -117 66 0
105 31 105 84 0 57 -27 76 -119 87 -88 9 -172 32 -227 60 -51 26 -93 24 -123
-6z"/>
<path d="M1414 3316 c-51 -23 -61 -90 -19 -131 l24 -25 374 0 c361 0 374 1
395 20 44 41 35 110 -18 137 -37 19 -712 18 -756 -1z"/>
<path d="M490 2983 c-61 -22 -79 -95 -35 -138 l24 -25 673 0 c536 1 676 3 690
14 28 21 39 61 26 97 -21 60 -11 59 -720 58 -354 0 -650 -3 -658 -6z"/>
<path d="M495 2643 c-65 -16 -88 -98 -39 -144 l26 -24 577 0 c475 0 583 2 604
14 33 18 49 62 36 99 -20 59 -3 57 -619 58 -311 1 -574 0 -585 -3z"/>
<path d="M455 2275 c-34 -33 -34 -83 1 -116 l26 -24 476 -3 c502 -3 541 0 563
40 18 34 13 78 -12 104 l-22 24 -504 0 -504 0 -24 -25z"/>
<path d="M1139 1341 c-20 -16 -25 -31 -29 -86 l-5 -67 -57 -18 c-31 -9 -77
-29 -103 -44 l-48 -26 -48 45 c-57 53 -96 59 -134 20 -41 -40 -34 -86 21 -145
25 -26 41 -51 36 -54 -13 -8 -58 -106 -71 -154 l-11 -40 -65 -4 c-50 -3 -70
-9 -87 -26 -30 -30 -29 -84 2 -117 20 -22 32 -25 86 -25 l63 0 16 -58 c9 -31
29 -80 45 -108 l29 -51 -45 -44 c-36 -35 -44 -50 -44 -79 0 -37 25 -70 63 -83
26 -9 67 10 109 50 l37 36 58 -31 c32 -17 79 -36 106 -42 l47 -12 0 -60 c0
-52 3 -63 29 -89 18 -17 40 -29 56 -29 16 0 38 12 56 29 26 26 29 37 29 89 l0
60 48 12 c26 6 73 25 105 42 l58 31 37 -36 c62 -60 102 -67 150 -24 37 34 30
79 -22 135 l-44 47 24 40 c13 22 34 70 45 108 l21 67 62 0 c52 0 66 4 83 23
29 31 34 52 21 87 -13 39 -54 60 -117 60 l-50 0 -11 43 c-7 23 -26 69 -44 103
l-32 61 43 47 c59 66 58 121 -4 154 -38 21 -63 13 -112 -33 l-48 -45 -48 26
c-26 15 -72 35 -103 44 l-57 18 -5 67 c-6 77 -28 105 -85 105 -18 0 -43 -9
-56 -19z m178 -342 c34 -13 77 -40 106 -68 179 -167 132 -457 -91 -559 -81
-37 -193 -37 -275 1 -172 79 -249 284 -169 449 46 94 90 137 178 173 78 32
171 33 251 4z"/>
<path d="M1164 760 c-56 -23 -70 -92 -28 -134 75 -74 192 29 122 108 -26 29
-63 39 -94 26z"/>
</g>
</svg>
