<?xml version="1.0" standalone="no"?>
<!DOCTYPE svg PUBLIC "-//W3C//DTD SVG 20010904//EN"
 "http://www.w3.org/TR/2001/REC-SVG-20010904/DTD/svg10.dtd">
<svg version="1.0" xmlns="http://www.w3.org/2000/svg"
 width="512.000000pt" height="512.000000pt" viewBox="0 0 512.000000 512.000000"
 preserveAspectRatio="xMidYMid meet">

<g transform="translate(0.000000,512.000000) scale(0.100000,-0.100000)"
fill="#000000" stroke="none">
<path d="M1287 5106 c-82 -30 -144 -93 -166 -171 -9 -30 -11 -633 -9 -2395 3
-2243 4 -2357 21 -2391 24 -47 71 -95 121 -122 l41 -22 1265 0 c1227 0 1266 1
1304 19 47 24 98 75 123 124 17 36 18 130 18 2412 0 2282 -1 2376 -18 2412
-25 49 -76 100 -123 124 -38 18 -79 19 -1289 21 -1032 2 -1257 0 -1288 -11z
m2524 -185 l29 -29 0 -2332 0 -2332 -29 -29 -29 -29 -1222 0 -1222 0 -29 29
-29 29 0 2332 0 2332 29 29 29 29 1222 0 1222 0 29 -29z"/>
<path d="M1640 4771 c-69 -22 -130 -73 -166 -141 -18 -34 -19 -98 -22 -1710
-3 -1856 -7 -1725 63 -1807 19 -22 56 -51 82 -64 l48 -24 915 0 915 0 48 24
c26 13 63 42 82 64 70 82 66 -49 63 1807 l-3 1675 -22 40 c-25 47 -74 95 -123
121 -33 18 -79 19 -945 21 -500 1 -921 -2 -935 -6z m1836 -194 l24 -28 0
-1639 c0 -1061 -4 -1648 -10 -1665 -21 -56 -4 -55 -930 -55 -926 0 -909 -1
-930 55 -6 17 -10 603 -10 1663 0 1488 1 1640 16 1660 9 13 26 27 38 32 11 5
416 8 899 7 l879 -2 24 -28z"/>
<path d="M2203 3996 c-92 -29 -167 -98 -209 -191 -25 -53 -29 -75 -32 -182
l-4 -123 -53 0 c-59 0 -99 -23 -109 -63 -6 -27 146 -893 163 -925 6 -12 28
-26 49 -32 50 -14 1054 -14 1104 0 21 6 43 20 49 32 17 32 169 898 163 925
-10 40 -50 63 -109 63 l-53 0 -4 123 c-4 107 -8 130 -32 184 -33 73 -103 143
-174 176 -45 21 -61 22 -377 24 -252 2 -340 -1 -372 -11z m710 -189 c58 -44
71 -77 75 -199 l4 -108 -431 0 -431 0 0 88 c0 102 12 150 45 190 51 61 60 62
396 59 l306 -2 36 -28z m-443 -817 l0 -340 -184 0 -185 0 -10 53 c-6 28 -31
169 -56 312 -25 143 -48 272 -51 288 l-6 27 246 0 246 0 0 -340z m666 313 c-3
-16 -26 -145 -51 -288 -25 -143 -50 -284 -56 -312 l-10 -53 -185 0 -184 0 0
340 0 340 246 0 246 0 -6 -27z"/>
<path d="M2762 2113 c-11 -10 -82 -96 -157 -191 l-138 -173 -63 62 c-55 54
-69 63 -100 63 -46 0 -84 -40 -84 -87 0 -26 16 -47 108 -139 97 -97 112 -108
144 -108 20 0 45 8 56 18 11 9 99 117 196 238 190 239 197 254 155 308 -25 32
-85 36 -117 9z"/>
<path d="M2295 835 c-61 -22 -130 -100 -150 -170 -39 -133 37 -270 171 -311
66 -20 422 -20 488 0 135 41 210 178 171 312 -21 73 -97 156 -160 173 -61 17
-470 14 -520 -4z m492 -177 c11 -13 23 -31 26 -41 10 -28 -19 -86 -48 -97 -34
-13 -376 -13 -410 0 -29 11 -58 69 -48 97 3 10 15 28 26 41 20 21 26 22 227
22 201 0 207 -1 227 -22z"/>
<path d="M600 4185 l0 -85 -85 0 -85 0 0 -85 0 -85 85 0 85 0 0 -90 0 -91 83
3 82 3 0 85 0 85 -82 3 -83 3 0 84 0 85 85 0 85 0 0 -85 0 -85 85 0 85 0 0 85
0 85 -85 0 -85 0 0 85 0 85 -85 0 -85 0 0 -85z"/>
<path d="M4655 3658 c-32 -18 -42 -39 -49 -96 -8 -70 -35 -121 -90 -169 -45
-40 -101 -63 -150 -63 -34 0 -82 -24 -90 -45 -22 -58 16 -125 72 -125 136 0
262 -126 262 -262 0 -56 67 -94 125 -72 22 9 45 57 45 96 0 49 41 128 88 170
41 37 120 68 173 68 38 0 69 29 76 72 5 32 1 41 -25 68 -23 23 -40 30 -69 30
-124 2 -223 96 -241 230 -7 50 -15 68 -36 87 -30 25 -60 29 -91 11z m81 -456
l-40 -42 -43 42 -43 42 41 42 41 42 42 -42 43 -41 -41 -43z"/>
<path d="M391 2634 c-34 -14 -51 -47 -51 -97 0 -47 -41 -127 -85 -166 -47 -41
-83 -57 -154 -66 -93 -12 -130 -80 -78 -140 17 -20 36 -28 85 -35 134 -19 230
-119 232 -242 0 -45 33 -86 76 -94 23 -4 37 0 61 20 25 21 31 35 36 80 9 93
63 172 146 215 12 7 50 17 83 21 73 11 108 38 108 85 0 54 -31 82 -98 90 -71
8 -150 50 -187 99 -29 38 -55 113 -55 156 0 35 -32 76 -64 82 -13 3 -38 -1
-55 -8z m78 -375 l41 -41 -41 -42 -41 -42 -42 41 -42 40 40 43 c22 23 41 42
42 42 1 0 20 -18 43 -41z"/>
<path d="M4350 1535 l0 -85 -85 0 -85 0 0 -85 0 -85 85 0 85 0 0 -85 0 -85 85
0 85 0 0 85 0 85 85 0 85 0 0 85 0 85 -85 0 -85 0 0 85 0 85 -85 0 -85 0 0
-85z m170 -170 l0 -85 -85 0 -85 0 0 85 0 85 85 0 85 0 0 -85z"/>
</g>
</svg>
