<?xml version="1.0" standalone="no"?>
<!DOCTYPE svg PUBLIC "-//W3C//DTD SVG 20010904//EN"
 "http://www.w3.org/TR/2001/REC-SVG-20010904/DTD/svg10.dtd">
<svg version="1.0" xmlns="http://www.w3.org/2000/svg"
 width="512.000000pt" height="512.000000pt" viewBox="0 0 512.000000 512.000000"
 preserveAspectRatio="xMidYMid meet">

<g transform="translate(0.000000,512.000000) scale(0.100000,-0.100000)"
fill="#000000" stroke="none">
<path d="M1244 5108 c-34 -16 -44 -52 -44 -163 0 -58 -2 -105 -5 -105 -2 0
-44 23 -92 52 -96 56 -141 65 -174 31 -17 -17 -325 -544 -357 -610 -28 -59
-10 -88 93 -149 49 -30 94 -56 100 -58 12 -5 11 -6 -99 -70 -94 -54 -118 -86
-99 -136 15 -39 334 -590 358 -618 34 -40 77 -33 178 26 48 29 90 52 92 52 3
0 5 -47 5 -105 0 -114 9 -147 47 -164 16 -7 141 -11 384 -11 l361 0 29 29 c29
29 29 31 29 141 l0 112 68 -38 c134 -76 136 -77 175 -61 30 13 53 48 211 320
97 169 179 319 182 335 8 40 -27 77 -125 132 -44 25 -81 47 -81 50 0 3 37 25
81 50 98 55 133 92 125 132 -3 16 -85 166 -182 335 -158 272 -181 307 -211
320 -39 16 -41 15 -175 -61 l-68 -38 0 112 c0 110 0 112 -29 141 l-29 29 -364
-1 c-228 0 -371 -4 -384 -11z m636 -302 c0 -138 1 -146 24 -172 37 -44 73 -37
204 40 62 36 117 66 121 66 4 0 64 -98 133 -217 l126 -218 -107 -61 c-131 -75
-161 -102 -161 -144 0 -42 30 -69 161 -144 l107 -61 -124 -215 c-68 -118 -128
-216 -133 -218 -5 -2 -60 27 -122 64 -131 76 -168 83 -206 39 -22 -25 -23 -35
-23 -171 l0 -144 -255 0 -255 0 0 144 c0 136 -1 146 -23 171 -38 45 -77 37
-207 -39 -62 -37 -117 -65 -122 -64 -5 2 -65 100 -133 218 -122 212 -124 215
-102 228 211 124 232 138 241 165 19 52 -1 77 -114 144 -58 34 -115 68 -127
75 -21 13 -20 16 101 225 67 117 125 215 129 219 4 4 60 -24 124 -61 135 -78
172 -85 210 -40 22 25 23 35 23 171 l0 144 255 0 255 0 0 -144z"/>
<path d="M1477 4496 c-152 -64 -243 -176 -270 -330 -31 -181 69 -368 240 -449
64 -30 75 -32 178 -32 103 0 114 2 178 32 170 81 269 267 238 451 -24 138
-113 256 -238 314 -60 29 -80 33 -168 36 -88 2 -107 0 -158 -22z m264 -174
c104 -54 155 -164 130 -277 -51 -227 -364 -267 -474 -60 -17 31 -22 58 -22
115 0 57 5 84 22 115 66 124 220 172 344 107z"/>
<path d="M3600 5111 c-78 -24 -132 -72 -167 -147 l-23 -51 2 -1804 3 -1804 22
-40 c22 -42 59 -80 104 -108 56 -34 140 -38 759 -35 l605 3 57 28 c32 16 71
45 88 65 64 77 60 -39 58 1927 -3 1724 -4 1791 -22 1825 -26 49 -74 98 -121
123 -40 22 -44 22 -690 24 -357 1 -661 -2 -675 -6z m1311 -190 l29 -29 0
-1762 c0 -1958 6 -1809 -68 -1829 -24 -7 -247 -11 -620 -11 -621 0 -636 1
-661 48 -16 30 -15 3531 0 3566 6 13 21 29 33 34 14 7 235 11 639 11 l619 1
29 -29z"/>
<path d="M3813 4689 c-86 -25 -83 -134 5 -159 51 -14 834 -13 885 1 28 8 42
19 54 45 16 31 16 37 0 68 -12 26 -26 37 -54 45 -48 14 -844 13 -890 0z"/>
<path d="M3813 4349 c-86 -25 -83 -134 5 -159 51 -14 834 -13 885 1 28 8 42
19 54 45 16 31 16 37 0 68 -12 26 -26 37 -54 45 -48 14 -844 13 -890 0z"/>
<path d="M3813 4009 c-86 -25 -83 -134 5 -159 51 -14 834 -13 885 1 28 8 42
19 54 45 16 31 16 37 0 68 -12 26 -26 37 -54 45 -48 14 -844 13 -890 0z"/>
<path d="M3882 3750 c-32 -13 -53 -66 -40 -102 18 -52 44 -60 173 -56 109 3
118 5 136 27 34 42 24 103 -22 126 -32 17 -208 20 -247 5z"/>
<path d="M4392 3750 c-32 -13 -53 -66 -40 -102 18 -52 44 -60 173 -56 109 3
118 5 136 27 34 42 24 103 -22 126 -32 17 -208 20 -247 5z"/>
<path d="M4168 3406 c-92 -25 -173 -94 -217 -186 -22 -46 -26 -69 -26 -140 0
-71 4 -94 26 -140 103 -217 386 -265 551 -93 75 79 109 190 89 290 -40 202
-228 321 -423 269z m155 -170 c44 -18 95 -78 103 -122 9 -47 -11 -111 -44
-146 -14 -16 -29 -28 -34 -28 -4 0 -8 39 -8 87 0 104 -18 133 -80 133 -61 0
-83 -33 -88 -136 l-5 -85 -25 23 c-132 122 14 344 181 274z"/>
<path d="M3779 2541 l-29 -29 0 -191 c0 -202 5 -231 47 -250 16 -8 164 -11
469 -11 l446 0 29 29 29 29 0 197 0 197 -29 29 -29 29 -452 0 -452 0 -29 -29z
m821 -226 l0 -85 -340 0 -340 0 0 85 0 85 340 0 340 0 0 -85z"/>
<path d="M3775 1945 c-25 -24 -25 -25 -25 -220 0 -122 4 -204 11 -217 24 -45
52 -48 491 -48 255 0 427 4 450 11 62 17 68 40 68 249 0 188 -8 229 -45 244
-9 3 -221 6 -471 6 l-455 0 -24 -25z m823 -227 l-3 -83 -337 -3 -338 -2 0 85
0 85 340 0 341 0 -3 -82z"/>
<path d="M229 4180 c-87 -15 -155 -63 -195 -140 -18 -33 -19 -77 -19 -960 l0
-925 22 -40 c28 -53 68 -89 128 -117 50 -23 51 -23 583 -26 l532 -3 0 -169 0
-170 -197 0 c-178 0 -203 -3 -243 -21 -99 -45 -145 -117 -145 -229 0 -104 36
-167 126 -223 57 -35 138 -38 845 -35 l690 3 59 30 c182 93 192 340 18 442
-48 28 -50 28 -258 33 l-210 5 -3 167 -2 167 537 3 538 3 57 28 c69 34 113 84
133 151 22 74 22 1778 0 1852 -20 67 -64 117 -132 150 -52 26 -66 28 -178 29
-99 0 -126 -3 -148 -18 -48 -31 -48 -102 0 -134 19 -13 52 -18 127 -21 56 -1
111 -5 123 -8 54 -11 53 8 53 -924 0 -960 4 -910 -68 -929 -25 -7 -482 -11
-1385 -11 -1444 0 -1399 -2 -1426 48 -8 15 -11 288 -11 897 l0 876 25 24 c22
23 32 25 117 25 125 0 164 12 185 56 16 31 16 37 0 68 -12 26 -26 37 -54 45
-43 12 -155 13 -224 1z m1561 -2380 l0 -170 -167 2 -168 3 -3 168 -2 167 170
0 170 0 0 -170z m570 -360 c48 -48 28 -121 -38 -139 -24 -7 -273 -11 -705 -11
-713 0 -721 1 -746 48 -18 34 -13 71 14 97 l24 25 716 0 c699 0 715 0 735 -20z"/>
<path d="M1093 2819 c-86 -25 -83 -134 5 -159 48 -13 156 -13 205 1 28 8 42
19 54 45 16 31 16 37 0 68 -12 26 -26 37 -54 45 -46 13 -166 13 -210 0z"/>
<path d="M1525 2823 c-65 -17 -88 -98 -39 -144 l26 -24 368 0 368 0 26 24 c36
34 36 88 0 122 l-26 24 -351 2 c-194 1 -361 -1 -372 -4z"/>
<path d="M1093 2479 c-86 -25 -83 -134 5 -159 48 -13 156 -13 205 1 28 8 42
19 54 45 16 31 16 37 0 68 -12 26 -26 37 -54 45 -46 13 -166 13 -210 0z"/>
<path d="M1525 2483 c-65 -17 -88 -98 -39 -144 l26 -24 368 0 368 0 26 24 c36
34 36 88 0 122 l-26 24 -351 2 c-194 1 -361 -1 -372 -4z"/>
<path d="M1071 1075 c-145 -34 -168 -43 -191 -72 -19 -25 -20 -40 -20 -475 l0
-450 29 -29 c16 -16 39 -29 50 -29 11 0 75 13 143 30 164 40 242 40 412 -1
l130 -32 131 32 c174 41 247 41 423 -1 123 -29 136 -31 160 -17 51 28 52 32
52 506 l0 442 -22 26 c-35 40 -217 85 -373 92 -111 5 -130 3 -246 -25 l-126
-31 -94 25 c-143 39 -320 42 -458 9z m380 -166 l89 -21 0 -334 c0 -261 -3
-334 -13 -334 -6 0 -44 7 -82 15 -90 19 -222 19 -322 0 -43 -8 -81 -15 -85
-15 -5 0 -8 150 -8 334 l0 334 83 20 c110 27 226 27 338 1z m680 0 l89 -21 0
-338 0 -338 -57 16 c-80 23 -316 23 -395 0 l-58 -16 0 338 0 338 83 20 c110
27 226 27 338 1z"/>
<path d="M3147 876 c-65 -24 -223 -124 -256 -161 -48 -56 -63 -100 -59 -180 3
-67 7 -78 77 -200 157 -273 183 -303 287 -326 42 -10 66 -10 106 0 57 13 212
97 266 145 76 67 104 193 62 285 -39 86 -194 345 -225 376 -64 63 -178 91
-258 61z m116 -167 c27 -12 26 -11 134 -198 46 -80 83 -156 83 -170 0 -41 -23
-65 -111 -116 -96 -55 -135 -65 -166 -38 -12 10 -63 89 -113 175 -95 165 -105
198 -71 239 l18 23 48 -82 c50 -87 67 -103 117 -104 38 -1 78 40 78 79 0 14
-20 61 -45 105 -25 43 -43 83 -40 88 8 13 38 13 68 -1z"/>
</g>
</svg>
